# xmcd
#
# Track frame offsets:
#	150
#	13447
#	27893
#	45711
#	61321
#	80079
#	91810
#	116635
#	133604
#	145197
#	162120
#	174869
#	184787
#	197505
#	215670
#	231503
#
# Disc length: 3252 seconds
#
# Revision: 0
# Processed by: cddbd v1.5.1PL2 Copyright (c) Steve Scherf et al.
# Submitted via: SynApp - FreeCDDB Version: 2.1
#
DISCID=de0cb210
DTITLE=Tina Turner - Tina Turner featuring Ike Turner Voil.2
DYEAR=2005
DGENRE=Soul
TTITLE0=Nutbush city limits
TTITLE1=Baby get it on
TTITLE2=River deep, mountain high
TTITLE3=Come together
TTITLE4=Something
TTITLE5=It´s gonna work out fine
TTITLE6=All  I can do is cry
TTITLE7=Stormy weather
TTITLE8=Poor fool
TTITLE9=Stand by me
TTITLE10=Shake
TTITLE11=Keep on pushing
TTITLE12=Betcha can´t kiss me
TTITLE13=Sugar, sugar
TTITLE14=I can´t stop loving you
TTITLE15=Ya, ya
EXTD=
EXTT0=
EXTT1=
EXTT2=
EXTT3=
EXTT4=
EXTT5=
EXTT6=
EXTT7=
EXTT8=
EXTT9=
EXTT10=
EXTT11=
EXTT12=
EXTT13=
EXTT14=
EXTT15=
PLAYORDER=
